<svg xmlns="http://www.w3.org/2000/svg" xmlns:xlink="http://www.w3.org/1999/xlink"
     viewBox="0 0 1600 1000" width="100%" height="100%"
     preserveAspectRatio="xMidYMin slice" role="img"
     aria-label="Fachada de catedral gotica bajo un cielo nocturno">
<title>Catedral</title>
<style>
  @keyframes tw   { 0%,100%{opacity:1} 50%{opacity:.4} }
  @keyframes fl   { 0%,100%{opacity:.85;transform:scale(1)}
                     38%{opacity:.2;transform:scale(.8)}
                     60%{opacity:1;transform:scale(1.12)} }
  @keyframes drift{ from{transform:translateX(-420px)} to{transform:translateX(1720px)} }
  @keyframes glow { 0%,100%{opacity:.62} 38%{opacity:.44} 61%{opacity:.70} 74%{opacity:.50} }
  @keyframes halo { 0%,100%{opacity:.5} 50%{opacity:.72} }
  .tw    { animation: tw 5s ease-in-out infinite; }
  .t1    { animation-duration: 4.3s; animation-delay: -1.1s; }
  .t2    { animation-duration: 6.2s; animation-delay: -3.4s; }
  .t3    { animation-duration: 7.7s; animation-delay: -5.6s; }
  .fl    { animation: fl 5.4s ease-in-out infinite;
            transform-box: fill-box; transform-origin: center; }
  .cloud { animation: drift linear infinite; }
  .lit   { animation: glow 7s ease-in-out infinite; }
  .moon-halo { animation: halo 11s ease-in-out infinite; }
  @media (prefers-reduced-motion: reduce) {
    .tw,.t1,.t2,.t3,.fl,.cloud,.lit,.moon-halo { animation: none; }
  }
</style>
<defs>
  <linearGradient id="g-sky" x1="0" y1="0" x2="0" y2="1">
    <stop offset="0"    stop-color="#02030a"/>
    <stop offset=".28"  stop-color="#070a18"/>
    <stop offset=".55"  stop-color="#0e1226"/>
    <stop offset=".78"  stop-color="#1a1730"/>
    <stop offset="1"    stop-color="#2b2038"/>
  </linearGradient>
  <radialGradient id="g-horizon" cx=".5" cy="1" r=".72">
    <stop offset="0"   stop-color="#6b4a63" stop-opacity=".55"/>
    <stop offset=".45" stop-color="#3a2c4c" stop-opacity=".30"/>
    <stop offset="1"   stop-color="#3a2c4c" stop-opacity="0"/>
  </radialGradient>
  <radialGradient id="g-moon" cx=".5" cy=".5" r=".5">
    <stop offset="0"   stop-color="#eef3ff" stop-opacity=".55"/>
    <stop offset=".35" stop-color="#c9d4f0" stop-opacity=".20"/>
    <stop offset="1"   stop-color="#8fa2d8" stop-opacity="0"/>
  </radialGradient>
  <linearGradient id="g-stone" gradientUnits="userSpaceOnUse" x1="0" y1="0" x2="0" y2="1000">
    <stop offset="0"   stop-color="#141828"/>
    <stop offset=".45" stop-color="#0a0c16"/>
    <stop offset="1"   stop-color="#04050a"/>
  </linearGradient>
  <radialGradient id="g-glass" cx=".5" cy=".62" r=".72">
    <stop offset="0"   stop-color="#f6dcb0"/>
    <stop offset=".42" stop-color="#b98a45"/>
    <stop offset=".78" stop-color="#6b3f16"/>
    <stop offset="1"   stop-color="#2a170a"/>
  </radialGradient>
  <radialGradient id="g-rose" cx=".5" cy=".5" r=".5">
    <stop offset="0"   stop-color="#f2d5a4"/>
    <stop offset=".22" stop-color="#bd8a3c"/>
    <stop offset=".46" stop-color="#7d1a24"/>
    <stop offset=".68" stop-color="#46102a"/>
    <stop offset=".86" stop-color="#1b1d49"/>
    <stop offset="1"   stop-color="#0d0f29"/>
  </radialGradient>
  <radialGradient id="g-fog" cx=".5" cy=".5" r=".5">
    <stop offset="0"   stop-color="#8e7fa6" stop-opacity=".40"/>
    <stop offset="1"   stop-color="#8e7fa6" stop-opacity="0"/>
  </radialGradient>
  <filter id="f-soft"  x="-30%" y="-120%" width="160%" height="340%"><feGaussianBlur stdDeviation="16"/></filter>
  <filter id="f-halo"  x="-25%" y="-25%"  width="150%" height="150%"><feGaussianBlur stdDeviation="16"/></filter>
  <filter id="f-bloom" x="-45%" y="-45%"  width="190%" height="190%"><feGaussianBlur stdDeviation="13"/></filter>

  <g id="mL"><rect x="120" y="800" width="180" height="200"/><rect x="116" y="792" width="188" height="12"/><rect x="120" y="778" width="28" height="222"/><rect x="272" y="778" width="28" height="222"/><rect x="116" y="769" width="36" height="11"/><path d="M119,771Q123.8,724.2 134,686Q144.2,724.2 149,771Z"/><rect x="268" y="769" width="36" height="11"/><path d="M271,771Q275.8,724.2 286,686Q296.2,724.2 301,771Z"/><rect x="300" y="690" width="160" height="310"/><rect x="296" y="682" width="168" height="13"/><rect x="300" y="668" width="28" height="332"/><rect x="432" y="668" width="28" height="332"/><rect x="295" y="659" width="38" height="11"/><path d="M298,661Q303.1,607.6 314,564Q324.9,607.6 330,661Z"/><rect x="427" y="659" width="38" height="11"/><path d="M430,661Q435.1,607.6 446,564Q456.9,607.6 462,661Z"/><rect x="460" y="290" width="180" height="710"/><rect x="460" y="268" width="30" height="732"/><rect x="610" y="268" width="30" height="732"/><rect x="450" y="278" width="200" height="16"/><rect x="454" y="572" width="192" height="12"/><rect x="454" y="842" width="192" height="11"/><path d="M488,290Q507.8,170.1 550,72Q592.2,170.1 612,290Z"/><path d="M526,274L550,208L574,274Z"/><rect x="455" y="279" width="38" height="11"/><path d="M458,281Q463.1,207.8 474,148Q484.9,207.8 490,281Z"/><rect x="607" y="279" width="38" height="11"/><path d="M610,281Q615.1,207.8 626,148Q636.9,207.8 642,281Z"/><rect x="546.5" y="32" width="7" height="52"/><rect x="534" y="46" width="32" height="7"/></g>
  <g id="gL"><path d="M172,960L172,890A76,76 0 0 1 210,824.2A76,76 0 0 1 248,890L248,960Z" fill="url(#g-glass)"/><path d="M342,935L342,815A78,78 0 0 1 381,747.5A78,78 0 0 1 420,815L420,935Z" fill="url(#g-glass)"/><path d="M498,572L498,478A45,45 0 0 1 520.5,439A45,45 0 0 1 543,478L543,572Z" fill="url(#g-glass)"/><path d="M558,572L558,478A45,45 0 0 1 580.5,439A45,45 0 0 1 603,478L603,572Z" fill="url(#g-glass)"/><path d="M498,842L498,730A45,45 0 0 1 520.5,691A45,45 0 0 1 543,730L543,842Z" fill="url(#g-glass)"/><path d="M558,842L558,730A45,45 0 0 1 580.5,691A45,45 0 0 1 603,730L603,842Z" fill="url(#g-glass)"/><circle cx="550" cy="920" r="24" fill="url(#g-glass)"/><path d="M542,274L542,264A16,16 0 0 1 550,250.1A16,16 0 0 1 558,264L558,274Z" fill="url(#g-glass)"/></g>
  <g id="lL"><path d="M172,960L172,890A76,76 0 0 1 210,824.2A76,76 0 0 1 248,890L248,960Z" fill="none" stroke="#06070d" stroke-width="5"/><line x1="210" y1="960" x2="210" y2="853.1" stroke="#06070d" stroke-width="4"/><line x1="174" y1="921.5" x2="246" y2="921.5" stroke="#06070d" stroke-width="3.5"/><path d="M342,935L342,815A78,78 0 0 1 381,747.5A78,78 0 0 1 420,815L420,935Z" fill="none" stroke="#06070d" stroke-width="5"/><line x1="381" y1="935" x2="381" y2="777.1" stroke="#06070d" stroke-width="4"/><line x1="344" y1="869" x2="418" y2="869" stroke="#06070d" stroke-width="3.5"/><circle cx="381" cy="788" r="13.3" fill="none" stroke="#06070d" stroke-width="4"/><path d="M498,572L498,478A45,45 0 0 1 520.5,439A45,45 0 0 1 543,478L543,572Z" fill="none" stroke="#06070d" stroke-width="5"/><line x1="520.5" y1="572" x2="520.5" y2="456.1" stroke="#06070d" stroke-width="4"/><line x1="500" y1="520.3" x2="541" y2="520.3" stroke="#06070d" stroke-width="3.5"/><path d="M558,572L558,478A45,45 0 0 1 580.5,439A45,45 0 0 1 603,478L603,572Z" fill="none" stroke="#06070d" stroke-width="5"/><line x1="580.5" y1="572" x2="580.5" y2="456.1" stroke="#06070d" stroke-width="4"/><line x1="560" y1="520.3" x2="601" y2="520.3" stroke="#06070d" stroke-width="3.5"/><path d="M498,842L498,730A45,45 0 0 1 520.5,691A45,45 0 0 1 543,730L543,842Z" fill="none" stroke="#06070d" stroke-width="5"/><line x1="520.5" y1="842" x2="520.5" y2="708.1" stroke="#06070d" stroke-width="4"/><line x1="500" y1="780.4" x2="541" y2="780.4" stroke="#06070d" stroke-width="3.5"/><path d="M558,842L558,730A45,45 0 0 1 580.5,691A45,45 0 0 1 603,730L603,842Z" fill="none" stroke="#06070d" stroke-width="5"/><line x1="580.5" y1="842" x2="580.5" y2="708.1" stroke="#06070d" stroke-width="4"/><line x1="560" y1="780.4" x2="601" y2="780.4" stroke="#06070d" stroke-width="3.5"/><circle cx="550" cy="920" r="24" fill="none" stroke="#06070d" stroke-width="6"/><line x1="550" y1="896" x2="550" y2="944" stroke="#06070d" stroke-width="4"/><path d="M542,274L542,264A16,16 0 0 1 550,250.1A16,16 0 0 1 558,264L558,274Z" fill="none" stroke="#06070d" stroke-width="5"/></g>

  <g id="mass"><use xlink:href="#mL" href="#mL"/><use xlink:href="#mL" href="#mL" transform="translate(1600,0) scale(-1,1)"/><rect x="640" y="510" width="320" height="490"/><path d="M634,510L800,258L966,510Z"/><rect x="628" y="496" width="344" height="18"/><rect x="640" y="492" width="28" height="508"/><rect x="932" y="492" width="28" height="508"/><rect x="635" y="483" width="38" height="11"/><path d="M638,485Q643.1,432.8 654,390Q664.9,432.8 670,485Z"/><rect x="927" y="483" width="38" height="11"/><path d="M930,485Q935.1,432.8 946,390Q956.9,432.8 962,485Z"/><rect x="636" y="770" width="328" height="15"/></g>
  <g id="glassG"><use xlink:href="#gL" href="#gL"/><use xlink:href="#gL" href="#gL" transform="translate(1600,0) scale(-1,1)"/><circle cx="800" cy="396" r="34" fill="url(#g-glass)"/><path d="M702,500L702,478A24,24 0 0 1 714,457.2A24,24 0 0 1 726,478L726,500Z" fill="url(#g-glass)"/><path d="M874,500L874,478A24,24 0 0 1 886,457.2A24,24 0 0 1 898,478L898,500Z" fill="url(#g-glass)"/><circle cx="800" cy="640" r="112" fill="url(#g-rose)"/><path d="M720,1000L720,930A160,160 0 0 1 800,791.4A160,160 0 0 1 880,930L880,1000Z" fill="url(#g-glass)"/><path d="M672,1000L672,950A40,40 0 0 1 692,915.4A40,40 0 0 1 712,950L712,1000Z" fill="url(#g-glass)"/><path d="M888,1000L888,950A40,40 0 0 1 908,915.4A40,40 0 0 1 928,950L928,1000Z" fill="url(#g-glass)"/></g>
</defs>

<!-- cielo -->
<rect width="1600" height="1000" fill="url(#g-sky)"/>
<rect width="1600" height="1000" fill="url(#g-horizon)"/>

<!-- estrellas -->
<g><g class="tw t1"><circle cx="99.4" cy="491.5" r="0.7" fill="#e6ecff" opacity="0.11"/><circle cx="125.7" cy="511.4" r="2.1" fill="#e6ecff" opacity="0.31"/><circle cx="1593" cy="66.5" r="0.9" fill="#e6ecff" opacity="0.26"/><circle cx="842.6" cy="972.2" r="0.7" fill="#e6ecff" opacity="0.04"/><circle cx="1235.1" cy="74.9" r="2.1" fill="#e6ecff" opacity="0.46"/><circle cx="1117" cy="61.7" r="1.6" fill="#e6ecff" opacity="0.76"/><circle cx="266.5" cy="582.8" r="0.9" fill="#e6ecff" opacity="0.21"/><circle cx="1245.7" cy="45.9" r="1.6" fill="#e6ecff" opacity="0.48"/><circle cx="1467.2" cy="276.6" r="0.9" fill="#e6ecff" opacity="0.25"/><circle cx="921.4" cy="853.3" r="0.7" fill="#e6ecff" opacity="0.18"/><circle cx="149.7" cy="578.2" r="0.7" fill="#e6ecff" opacity="0.25"/><circle cx="1416.2" cy="318" r="0.9" fill="#e6ecff" opacity="0.43"/><circle cx="826.4" cy="264.5" r="1.3" fill="#e6ecff" opacity="0.15"/><circle cx="108.4" cy="436.5" r="0.7" fill="#e6ecff" opacity="0.34"/><circle cx="1050.9" cy="428.4" r="0.7" fill="#e6ecff" opacity="0.23"/><circle cx="384.8" cy="734" r="1.3" fill="#e6ecff" opacity="0.16"/><circle cx="1235.5" cy="1043.4" r="0.7" fill="#e6ecff" opacity="0.04"/><circle cx="126.1" cy="81.2" r="1.1" fill="#e6ecff" opacity="0.54"/><circle cx="1264.7" cy="455.6" r="2.1" fill="#e6ecff" opacity="0.34"/><circle cx="1320.3" cy="906.7" r="1.1" fill="#e6ecff" opacity="0.05"/><circle cx="1213.4" cy="232.5" r="1.6" fill="#e6ecff" opacity="0.52"/><circle cx="983" cy="254.2" r="0.9" fill="#e6ecff" opacity="0.19"/><circle cx="581.7" cy="555.1" r="1.1" fill="#e6ecff" opacity="0.23"/><circle cx="816.4" cy="298.5" r="2.1" fill="#e6ecff" opacity="0.36"/><circle cx="1568.4" cy="532.4" r="1.3" fill="#e6ecff" opacity="0.30"/><circle cx="755.7" cy="345.2" r="0.9" fill="#e6ecff" opacity="0.34"/><circle cx="1186.9" cy="249.9" r="0.7" fill="#e6ecff" opacity="0.30"/><circle cx="806" cy="319.6" r="0.7" fill="#e6ecff" opacity="0.42"/><circle cx="610.6" cy="643.2" r="1.1" fill="#e6ecff" opacity="0.30"/><circle cx="637.6" cy="1178.1" r="0.9" fill="#e6ecff" opacity="-0.04"/><circle cx="1294.2" cy="621" r="0.9" fill="#e6ecff" opacity="0.11"/><circle cx="173.7" cy="402.8" r="0.7" fill="#e6ecff" opacity="0.43"/><circle cx="133.9" cy="784.1" r="2.1" fill="#e6ecff" opacity="0.11"/><circle cx="894" cy="26.8" r="2.1" fill="#e6ecff" opacity="0.64"/><circle cx="549.4" cy="847.7" r="1.1" fill="#e6ecff" opacity="0.17"/><circle cx="276.2" cy="1163.7" r="1.6" fill="#e6ecff" opacity="-0.02"/><circle cx="593.5" cy="875.7" r="1.6" fill="#e6ecff" opacity="0.10"/><circle cx="483.3" cy="757.3" r="1.1" fill="#e6ecff" opacity="0.18"/><circle cx="461.1" cy="280.9" r="0.7" fill="#e6ecff" opacity="0.21"/><circle cx="624" cy="128.2" r="2.1" fill="#e6ecff" opacity="0.50"/><circle cx="889.1" cy="244.1" r="1.1" fill="#e6ecff" opacity="0.37"/><circle cx="1139.2" cy="428.6" r="0.9" fill="#e6ecff" opacity="0.42"/><circle cx="1350.9" cy="633.1" r="1.3" fill="#e6ecff" opacity="0.11"/><circle cx="1076.8" cy="109.9" r="0.7" fill="#e6ecff" opacity="0.34"/><circle cx="396.1" cy="1091.9" r="0.9" fill="#e6ecff" opacity="0.00"/><circle cx="1454.4" cy="349.1" r="1.3" fill="#e6ecff" opacity="0.49"/><circle cx="100" cy="706.2" r="0.9" fill="#e6ecff" opacity="0.10"/><circle cx="1596.1" cy="634.8" r="0.7" fill="#e6ecff" opacity="0.37"/><circle cx="585.6" cy="479.2" r="0.7" fill="#e6ecff" opacity="0.21"/><circle cx="1259.4" cy="625.4" r="0.7" fill="#e6ecff" opacity="0.10"/></g><g class="tw t2"><circle cx="1543.3" cy="668.3" r="2.1" fill="#e6ecff" opacity="0.24"/><circle cx="1052.9" cy="62.8" r="2.1" fill="#e6ecff" opacity="0.84"/><circle cx="170" cy="269.9" r="0.9" fill="#e6ecff" opacity="0.54"/><circle cx="85.6" cy="363.6" r="2.1" fill="#e6ecff" opacity="0.47"/><circle cx="123.5" cy="1064.2" r="0.9" fill="#e6ecff" opacity="0.01"/><circle cx="1259.4" cy="722.5" r="1.6" fill="#e6ecff" opacity="0.19"/><circle cx="1373.6" cy="501.5" r="1.1" fill="#e6ecff" opacity="0.36"/><circle cx="957.2" cy="435.2" r="2.1" fill="#e6ecff" opacity="0.17"/><circle cx="1547.4" cy="57.1" r="0.7" fill="#e6ecff" opacity="0.60"/><circle cx="1460.1" cy="1058" r="2.1" fill="#e6ecff" opacity="0.03"/><circle cx="1045.7" cy="793.9" r="0.9" fill="#e6ecff" opacity="0.18"/><circle cx="1186.4" cy="245.9" r="1.6" fill="#e6ecff" opacity="0.31"/><circle cx="439.2" cy="981.3" r="1.1" fill="#e6ecff" opacity="0.04"/><circle cx="500.3" cy="483.4" r="1.1" fill="#e6ecff" opacity="0.32"/><circle cx="487.7" cy="821.6" r="2.1" fill="#e6ecff" opacity="0.21"/><circle cx="952.1" cy="1030" r="1.1" fill="#e6ecff" opacity="0.05"/><circle cx="1352.7" cy="1208.9" r="1.6" fill="#e6ecff" opacity="-0.05"/><circle cx="925.1" cy="1106.8" r="1.1" fill="#e6ecff" opacity="-0.00"/><circle cx="1025.9" cy="606.3" r="1.3" fill="#e6ecff" opacity="0.10"/><circle cx="706.9" cy="757.6" r="1.1" fill="#e6ecff" opacity="0.21"/><circle cx="476.4" cy="796.2" r="0.9" fill="#e6ecff" opacity="0.05"/><circle cx="453.9" cy="141.7" r="2.1" fill="#e6ecff" opacity="0.21"/><circle cx="30.4" cy="280.4" r="0.9" fill="#e6ecff" opacity="0.44"/><circle cx="81.1" cy="208.9" r="2.1" fill="#e6ecff" opacity="0.40"/><circle cx="244.8" cy="118" r="0.9" fill="#e6ecff" opacity="0.37"/><circle cx="1206" cy="943.9" r="2.1" fill="#e6ecff" opacity="0.13"/><circle cx="122.1" cy="1014.2" r="2.1" fill="#e6ecff" opacity="0.05"/><circle cx="815.8" cy="629.3" r="1.3" fill="#e6ecff" opacity="0.25"/><circle cx="322.3" cy="169.9" r="1.1" fill="#e6ecff" opacity="0.35"/><circle cx="1536.6" cy="233" r="1.1" fill="#e6ecff" opacity="0.51"/><circle cx="1399.5" cy="446.2" r="1.1" fill="#e6ecff" opacity="0.11"/><circle cx="1402" cy="460.8" r="1.1" fill="#e6ecff" opacity="0.45"/><circle cx="155.7" cy="590.6" r="0.7" fill="#e6ecff" opacity="0.12"/><circle cx="223.1" cy="939.1" r="0.7" fill="#e6ecff" opacity="0.12"/><circle cx="255.5" cy="192.8" r="0.9" fill="#e6ecff" opacity="0.34"/><circle cx="93" cy="1065.1" r="0.7" fill="#e6ecff" opacity="0.03"/><circle cx="679.2" cy="337.3" r="0.9" fill="#e6ecff" opacity="0.37"/><circle cx="1240.8" cy="540.3" r="1.1" fill="#e6ecff" opacity="0.25"/><circle cx="1041.8" cy="388.3" r="1.3" fill="#e6ecff" opacity="0.47"/><circle cx="702.8" cy="853.5" r="1.6" fill="#e6ecff" opacity="0.17"/><circle cx="649.7" cy="1180.3" r="0.7" fill="#e6ecff" opacity="-0.07"/><circle cx="1129.8" cy="438.6" r="0.9" fill="#e6ecff" opacity="0.44"/><circle cx="1007.9" cy="1010.3" r="1.3" fill="#e6ecff" opacity="0.05"/><circle cx="1317.3" cy="796.2" r="1.1" fill="#e6ecff" opacity="0.22"/><circle cx="134.4" cy="122.8" r="0.9" fill="#e6ecff" opacity="0.27"/><circle cx="339.3" cy="230.5" r="1.1" fill="#e6ecff" opacity="0.15"/><circle cx="4.4" cy="747.7" r="1.6" fill="#e6ecff" opacity="0.19"/><circle cx="1018.1" cy="708.1" r="1.1" fill="#e6ecff" opacity="0.29"/><circle cx="945.5" cy="28.9" r="1.6" fill="#e6ecff" opacity="0.54"/><circle cx="564.9" cy="790.9" r="1.6" fill="#e6ecff" opacity="0.20"/></g><g class="tw t3"><circle cx="1331.3" cy="1058.8" r="0.7" fill="#e6ecff" opacity="0.01"/><circle cx="796.1" cy="42.5" r="1.6" fill="#e6ecff" opacity="0.25"/><circle cx="1152" cy="1119.5" r="0.9" fill="#e6ecff" opacity="-0.01"/><circle cx="680.6" cy="68.6" r="0.9" fill="#e6ecff" opacity="0.80"/><circle cx="144.8" cy="225.7" r="1.3" fill="#e6ecff" opacity="0.44"/><circle cx="401.8" cy="928.2" r="2.1" fill="#e6ecff" opacity="0.07"/><circle cx="933.3" cy="146.1" r="0.7" fill="#e6ecff" opacity="0.40"/><circle cx="1372.6" cy="356.1" r="1.3" fill="#e6ecff" opacity="0.56"/><circle cx="736.5" cy="230.8" r="0.9" fill="#e6ecff" opacity="0.18"/><circle cx="1336.6" cy="1211.9" r="1.1" fill="#e6ecff" opacity="-0.04"/><circle cx="474.5" cy="184.4" r="1.6" fill="#e6ecff" opacity="0.55"/><circle cx="1256.4" cy="510.7" r="1.1" fill="#e6ecff" opacity="0.24"/><circle cx="915.8" cy="142" r="1.3" fill="#e6ecff" opacity="0.24"/><circle cx="1115" cy="181.2" r="2.1" fill="#e6ecff" opacity="0.74"/><circle cx="1533.2" cy="28" r="1.6" fill="#e6ecff" opacity="0.55"/><circle cx="640.7" cy="446.2" r="1.6" fill="#e6ecff" opacity="0.39"/><circle cx="355.7" cy="1216.6" r="0.9" fill="#e6ecff" opacity="-0.09"/><circle cx="1455.3" cy="91.7" r="1.3" fill="#e6ecff" opacity="0.71"/><circle cx="1007.6" cy="402.9" r="0.7" fill="#e6ecff" opacity="0.57"/><circle cx="788.7" cy="517.5" r="2.1" fill="#e6ecff" opacity="0.45"/><circle cx="328.8" cy="264.6" r="1.6" fill="#e6ecff" opacity="0.35"/><circle cx="305.9" cy="913.5" r="1.1" fill="#e6ecff" opacity="0.08"/><circle cx="1538.7" cy="215.4" r="1.3" fill="#e6ecff" opacity="0.48"/><circle cx="850.6" cy="1158.4" r="0.7" fill="#e6ecff" opacity="-0.04"/><circle cx="342.8" cy="186.2" r="2.1" fill="#e6ecff" opacity="0.56"/><circle cx="1188.2" cy="908.9" r="1.1" fill="#e6ecff" opacity="0.13"/><circle cx="281.5" cy="235.4" r="2.1" fill="#e6ecff" opacity="0.59"/><circle cx="681.2" cy="1055.2" r="1.6" fill="#e6ecff" opacity="0.01"/><circle cx="233.8" cy="156" r="1.1" fill="#e6ecff" opacity="0.75"/><circle cx="419.5" cy="417.6" r="0.7" fill="#e6ecff" opacity="0.55"/><circle cx="1049.4" cy="423.7" r="0.7" fill="#e6ecff" opacity="0.53"/><circle cx="479.7" cy="539.6" r="0.9" fill="#e6ecff" opacity="0.24"/><circle cx="1319.4" cy="160.7" r="2.1" fill="#e6ecff" opacity="0.73"/><circle cx="649.2" cy="1206.6" r="0.7" fill="#e6ecff" opacity="-0.04"/><circle cx="146.4" cy="35.7" r="0.9" fill="#e6ecff" opacity="0.37"/><circle cx="1444.5" cy="652.1" r="0.9" fill="#e6ecff" opacity="0.36"/><circle cx="374.9" cy="363.8" r="0.7" fill="#e6ecff" opacity="0.13"/><circle cx="477.3" cy="59.9" r="1.3" fill="#e6ecff" opacity="0.22"/><circle cx="1171.1" cy="702.1" r="0.9" fill="#e6ecff" opacity="0.28"/><circle cx="125.3" cy="133.6" r="0.9" fill="#e6ecff" opacity="0.72"/><circle cx="1405.7" cy="370" r="0.7" fill="#e6ecff" opacity="0.18"/><circle cx="1206.1" cy="92.4" r="1.6" fill="#e6ecff" opacity="0.38"/><circle cx="146.8" cy="318.5" r="1.3" fill="#e6ecff" opacity="0.46"/><circle cx="755.7" cy="8.8" r="2.1" fill="#e6ecff" opacity="0.53"/><circle cx="1134.6" cy="9.2" r="1.1" fill="#e6ecff" opacity="0.20"/><circle cx="1212.9" cy="499.9" r="0.7" fill="#e6ecff" opacity="0.40"/><circle cx="1332.7" cy="618.1" r="0.9" fill="#e6ecff" opacity="0.19"/><circle cx="1353.6" cy="664.1" r="0.9" fill="#e6ecff" opacity="0.12"/><circle cx="63.5" cy="1096.8" r="2.1" fill="#e6ecff" opacity="0.00"/><circle cx="1054.1" cy="791.2" r="1.6" fill="#e6ecff" opacity="0.22"/></g><g class="fl" style="animation-delay:-1.3s" opacity=".8"><circle cx="228" cy="118" r="2.4" fill="#f2f6ff"/><path d="M216,118H240M228,106V130" stroke="#f2f6ff" stroke-width="1" opacity=".5"/></g><g class="fl" style="animation-delay:-4.7s" opacity=".8"><circle cx="1372" cy="262" r="2.4" fill="#f2f6ff"/><path d="M1360,262H1384M1372,250V274" stroke="#f2f6ff" stroke-width="1" opacity=".5"/></g><g class="fl" style="animation-delay:-2.1s" opacity=".8"><circle cx="612" cy="74" r="2.4" fill="#f2f6ff"/><path d="M600,74H624M612,62V86" stroke="#f2f6ff" stroke-width="1" opacity=".5"/></g><g class="fl" style="animation-delay:-0.1s" opacity=".8"><circle cx="1042" cy="156" r="2.4" fill="#f2f6ff"/><path d="M1030,156H1054M1042,144V168" stroke="#f2f6ff" stroke-width="1" opacity=".5"/></g><g class="fl" style="animation-delay:-4.3s" opacity=".8"><circle cx="838" cy="208" r="2.4" fill="#f2f6ff"/><path d="M826,208H850M838,196V220" stroke="#f2f6ff" stroke-width="1" opacity=".5"/></g><g class="fl" style="animation-delay:-0.5s" opacity=".8"><circle cx="452" cy="296" r="2.4" fill="#f2f6ff"/><path d="M440,296H464M452,284V308" stroke="#f2f6ff" stroke-width="1" opacity=".5"/></g></g>

<!-- luna -->
<g>
  <circle class="moon-halo" cx="1248" cy="208" r="210" fill="url(#g-moon)"/>
  <circle cx="1248" cy="208" r="52" fill="#dfe6f7" opacity=".92"/>
  <circle cx="1264" cy="196" r="52" fill="#0b0e1e" opacity=".55"/>
  <circle cx="1232" cy="224" r="9"  fill="#b9c3dd" opacity=".35"/>
  <circle cx="1222" cy="197" r="5"  fill="#b9c3dd" opacity=".30"/>
</g>

<!-- nubes -->
<g><g class="cloud" fill="#1b2136" opacity="0.3" filter="url(#f-soft)" style="animation-duration:190s;animation-delay:0s"><ellipse cx="-62.4" cy="164" rx="179.5" ry="27.4"/><ellipse cx="147.4" cy="155.1" rx="232.1" ry="27.2"/><ellipse cx="354.4" cy="154.8" rx="189.1" ry="23.4"/><ellipse cx="507.3" cy="161.5" rx="257.2" ry="18.3"/><ellipse cx="714.7" cy="139.9" rx="189.9" ry="28.5"/></g><g class="cloud" fill="#1b2136" opacity="0.24" filter="url(#f-soft)" style="animation-duration:260s;animation-delay:-70s"><ellipse cx="63.5" cy="278.7" rx="351" ry="42.8"/><ellipse cx="346.6" cy="265.2" rx="258.3" ry="29.5"/><ellipse cx="646.5" cy="260.6" rx="358.9" ry="24.4"/><ellipse cx="991.2" cy="286.5" rx="204.5" ry="36"/><ellipse cx="1192.1" cy="284.6" rx="355.9" ry="32.7"/><ellipse cx="1583.7" cy="267.9" rx="224.1" ry="29.9"/><ellipse cx="1814.4" cy="250.8" rx="277.2" ry="23.9"/><ellipse cx="2128.8" cy="261.7" rx="250.8" ry="23.3"/></g><g class="cloud" fill="#1b2136" opacity="0.2" filter="url(#f-soft)" style="animation-duration:330s;animation-delay:-140s"><ellipse cx="145.5" cy="369.8" rx="278.6" ry="48.9"/><ellipse cx="359.5" cy="410.6" rx="357.3" ry="31.3"/><ellipse cx="792.5" cy="403.3" rx="305.7" ry="47.9"/><ellipse cx="1047.3" cy="371.5" rx="243.9" ry="49.8"/><ellipse cx="1337.9" cy="385.8" rx="278.5" ry="41.9"/><ellipse cx="1682.7" cy="409.3" rx="345.7" ry="40.6"/></g><g class="cloud" fill="#1b2136" opacity="0.22" filter="url(#f-soft)" style="animation-duration:150s;animation-delay:-40s"><ellipse cx="-94.9" cy="95.9" rx="117.9" ry="12"/><ellipse cx="31.2" cy="85.5" rx="137.1" ry="21.5"/><ellipse cx="160.8" cy="85.4" rx="146.2" ry="20.6"/><ellipse cx="330.4" cy="101.1" rx="112.7" ry="15"/><ellipse cx="458.9" cy="95.8" rx="118.5" ry="18.5"/><ellipse cx="579" cy="86.1" rx="136.9" ry="12.6"/><ellipse cx="742.8" cy="103.5" rx="93.7" ry="12.2"/><ellipse cx="854.8" cy="83.5" rx="94.9" ry="12.1"/></g></g>

<!-- aves lejanas -->
<g opacity=".5"><path d="M1173,330q3.5,-4.3 7,0q3.5,-4.3 7,0" fill="none" stroke="#0d1120" stroke-width="1.7"/><path d="M1208.4,346q2.8,-3.5 5.6,0q2.8,-3.5 5.6,0" fill="none" stroke="#0d1120" stroke-width="1.7"/><path d="M1239.7,320q3.1,-3.9 6.3,0q3.1,-3.9 6.3,0" fill="none" stroke="#0d1120" stroke-width="1.7"/><path d="M1277.1,352q2.4,-3 4.9,0q2.4,-3 4.9,0" fill="none" stroke="#0d1120" stroke-width="1.7"/><path d="M1312,334q3,-3.7 6,0q3,-3.7 6,0" fill="none" stroke="#0d1120" stroke-width="1.7"/><path d="M1351.8,360q2.1,-2.6 4.2,0q2.1,-2.6 4.2,0" fill="none" stroke="#0d1120" stroke-width="1.7"/></g>

<!-- siluetas lejanas -->
<g fill="#0a0d1c" opacity=".62"><rect x="26" y="706" width="62" height="294"/><path d="M26,706Q35.9,629 57,566Q78.1,629 88,706Z"/><rect x="1516" y="706" width="62" height="294"/><path d="M1516,706Q1525.9,629 1547,566Q1568.1,629 1578,706Z"/><rect x="-40" y="792" width="62" height="208"/><path d="M-40,792Q-30.1,735.9 -9,690Q12.1,735.9 22,792Z"/><rect x="1582" y="792" width="62" height="208"/><path d="M1582,792Q1591.9,735.9 1613,690Q1634.1,735.9 1644,792Z"/><rect x="0" y="876" width="130" height="124"/><rect x="1470" y="876" width="130" height="124"/></g>

<!-- contraluz de la catedral -->
<use xlink:href="#mass" href="#mass" fill="#6a57a3" opacity=".42" filter="url(#f-halo)"/>

<!-- catedral -->
<use xlink:href="#mass" href="#mass" fill="url(#g-stone)"/>

<!-- vitrales encendidos -->
<g class="lit" opacity=".62">
  <use xlink:href="#glassG" href="#glassG" filter="url(#f-bloom)" opacity=".75"/>
  <use xlink:href="#glassG" href="#glassG"/>
</g>

<!-- traceria -->
<g><use xlink:href="#lL" href="#lL"/><use xlink:href="#lL" href="#lL" transform="translate(1600,0) scale(-1,1)"/><circle cx="800" cy="396" r="34" fill="none" stroke="#06070d" stroke-width="7"/><line x1="834" y1="396" x2="766" y2="396" stroke="#06070d" stroke-width="4"/><line x1="824" y1="420" x2="776" y2="372" stroke="#06070d" stroke-width="4"/><line x1="800" y1="430" x2="800" y2="362" stroke="#06070d" stroke-width="4"/><line x1="776" y1="420" x2="824" y2="372" stroke="#06070d" stroke-width="4"/><path d="M702,500L702,478A24,24 0 0 1 714,457.2A24,24 0 0 1 726,478L726,500Z" fill="none" stroke="#06070d" stroke-width="5"/><path d="M874,500L874,478A24,24 0 0 1 886,457.2A24,24 0 0 1 898,478L898,500Z" fill="none" stroke="#06070d" stroke-width="5"/><circle cx="800" cy="640" r="112" fill="none" stroke="#06070d" stroke-width="14"/><circle cx="800" cy="640" r="107" fill="none" stroke="#2b3350" stroke-width="2" opacity=".45"/><circle cx="800" cy="640" r="44.8" fill="none" stroke="#06070d" stroke-width="7"/><circle cx="800" cy="640" r="16.8" fill="#06070d"/><line x1="800" y1="624.3" x2="800" y2="595.2" stroke="#06070d" stroke-width="5"/><circle cx="800" cy="563.8" r="26.3" fill="none" stroke="#06070d" stroke-width="5"/><line x1="811.6" y1="596.7" x2="829" y2="531.8" stroke="#06070d" stroke-width="4.5"/><line x1="807.8" y1="626.4" x2="822.4" y2="601.2" stroke="#06070d" stroke-width="5"/><circle cx="838.1" cy="574" r="26.3" fill="none" stroke="#06070d" stroke-width="5"/><line x1="831.7" y1="608.3" x2="879.2" y2="560.8" stroke="#06070d" stroke-width="4.5"/><line x1="813.6" y1="632.2" x2="838.8" y2="617.6" stroke="#06070d" stroke-width="5"/><circle cx="866" cy="601.9" r="26.3" fill="none" stroke="#06070d" stroke-width="5"/><line x1="843.3" y1="628.4" x2="908.2" y2="611" stroke="#06070d" stroke-width="4.5"/><line x1="815.7" y1="640" x2="844.8" y2="640" stroke="#06070d" stroke-width="5"/><circle cx="876.2" cy="640" r="26.3" fill="none" stroke="#06070d" stroke-width="5"/><line x1="843.3" y1="651.6" x2="908.2" y2="669" stroke="#06070d" stroke-width="4.5"/><line x1="813.6" y1="647.8" x2="838.8" y2="662.4" stroke="#06070d" stroke-width="5"/><circle cx="866" cy="678.1" r="26.3" fill="none" stroke="#06070d" stroke-width="5"/><line x1="831.7" y1="671.7" x2="879.2" y2="719.2" stroke="#06070d" stroke-width="4.5"/><line x1="807.8" y1="653.6" x2="822.4" y2="678.8" stroke="#06070d" stroke-width="5"/><circle cx="838.1" cy="706" r="26.3" fill="none" stroke="#06070d" stroke-width="5"/><line x1="811.6" y1="683.3" x2="829" y2="748.2" stroke="#06070d" stroke-width="4.5"/><line x1="800" y1="655.7" x2="800" y2="684.8" stroke="#06070d" stroke-width="5"/><circle cx="800" cy="716.2" r="26.3" fill="none" stroke="#06070d" stroke-width="5"/><line x1="788.4" y1="683.3" x2="771" y2="748.2" stroke="#06070d" stroke-width="4.5"/><line x1="792.2" y1="653.6" x2="777.6" y2="678.8" stroke="#06070d" stroke-width="5"/><circle cx="761.9" cy="706" r="26.3" fill="none" stroke="#06070d" stroke-width="5"/><line x1="768.3" y1="671.7" x2="720.8" y2="719.2" stroke="#06070d" stroke-width="4.5"/><line x1="786.4" y1="647.8" x2="761.2" y2="662.4" stroke="#06070d" stroke-width="5"/><circle cx="734" cy="678.1" r="26.3" fill="none" stroke="#06070d" stroke-width="5"/><line x1="756.7" y1="651.6" x2="691.8" y2="669" stroke="#06070d" stroke-width="4.5"/><line x1="784.3" y1="640" x2="755.2" y2="640" stroke="#06070d" stroke-width="5"/><circle cx="723.8" cy="640" r="26.3" fill="none" stroke="#06070d" stroke-width="5"/><line x1="756.7" y1="628.4" x2="691.8" y2="611" stroke="#06070d" stroke-width="4.5"/><line x1="786.4" y1="632.2" x2="761.2" y2="617.6" stroke="#06070d" stroke-width="5"/><circle cx="734" cy="601.9" r="26.3" fill="none" stroke="#06070d" stroke-width="5"/><line x1="768.3" y1="608.3" x2="720.8" y2="560.8" stroke="#06070d" stroke-width="4.5"/><line x1="792.2" y1="626.4" x2="777.6" y2="601.2" stroke="#06070d" stroke-width="5"/><circle cx="761.9" cy="574" r="26.3" fill="none" stroke="#06070d" stroke-width="5"/><line x1="788.4" y1="596.7" x2="771" y2="531.8" stroke="#06070d" stroke-width="4.5"/><path d="M720,1000L720,930A160,160 0 0 1 800,791.4A160,160 0 0 1 880,930L880,1000Z" fill="none" stroke="#06070d" stroke-width="5"/><line x1="800" y1="1000" x2="800" y2="852.2" stroke="#06070d" stroke-width="4"/><line x1="722" y1="961.5" x2="878" y2="961.5" stroke="#06070d" stroke-width="3.5"/><circle cx="800" cy="874.6" r="27.2" fill="none" stroke="#06070d" stroke-width="4"/><path d="M672,1000L672,950A40,40 0 0 1 692,915.4A40,40 0 0 1 712,950L712,1000Z" fill="none" stroke="#06070d" stroke-width="5"/><path d="M888,1000L888,950A40,40 0 0 1 908,915.4A40,40 0 0 1 928,950L928,1000Z" fill="none" stroke="#06070d" stroke-width="5"/><line x1="800" y1="902" x2="800" y2="1000" stroke="#06070d" stroke-width="4"/><line x1="728" y1="918" x2="872" y2="918" stroke="#1b1408" stroke-width="2.5" opacity=".8"/><line x1="728" y1="942" x2="872" y2="942" stroke="#1b1408" stroke-width="2.5" opacity=".8"/><line x1="728" y1="966" x2="872" y2="966" stroke="#1b1408" stroke-width="2.5" opacity=".8"/></g>

<!-- escalinata -->
<g fill="#090b14"><rect x="726" y="902" width="148" height="98"/><rect x="676" y="948" width="32" height="52"/><rect x="892" y="948" width="32" height="52"/><rect x="688" y="984" width="224" height="7"/><rect x="672" y="991" width="256" height="7"/><rect x="656" y="998" width="288" height="6"/></g>

<!-- niebla al pie -->
<g fill="url(#g-fog)" filter="url(#f-soft)"><ellipse cx="300" cy="968" rx="520" ry="62"/><ellipse cx="1180" cy="986" rx="560" ry="58"/><ellipse cx="800" cy="1002" rx="720" ry="72"/><ellipse cx="620" cy="940" rx="380" ry="40"/></g>
</svg>
